#!OML:ASF F:\VICON\USERDATA\INSTALL\Justin_Nancy\Justin_Nancy.ASF
:FULLY-SPECIFIED
:DEGREES
95
root 12.2211 16.7784 -6.97312 0.530466 3.41316 15.6361
lowerback 7.51784 -3.34423 -10.9611
upperback -0.244686 -5.46832 -1.10916
thorax -3.57179 -2.51737 5.49193
lowerneck -14.4101 -6.65344 -12.8105
upperneck 21.816 -7.43617 5.22059
head 10.0279 -3.94525 2.9599
rclavicle 8.05078e-015 7.95139e-015
rhumerus -50.1383 -21.3482 -66.5324
rradius 24.1814
rwrist 15.5419
rhand -10.4567 8.90071
rfingers 7.12502
rthumb 15.5438 -20.4946
lclavicle 8.05078e-015 7.95139e-015
lhumerus -20.7743 11.2427 76.7762
lradius 27.0208
lwrist -7.77174
lhand -18.3863 26.8684
lfingers 7.12502
lthumb 7.89751 56.7008
rfemur -33.5477 -3.38565 12.0848
rtibia 15.9805
rfoot 3.81105 -26.3952
rtoes 5.35252
lfemur 5.30664 1.83816 -29.2656
ltibia 24.2618
lfoot -17.7042 3.54183
ltoes -25.0434
96
root 12.1593 16.7756 -6.76547 0.131735 2.58295 15.6105
lowerback 7.66587 -3.37438 -10.8508
upperback -0.281841 -5.52079 -1.08747
thorax -3.69327 -2.53698 5.47194
lowerneck -14.0663 -6.82376 -13.1848
upperneck 21.9045 -7.67459 5.35904
head 10.0435 -4.07966 3.04264
rclavicle -7.37491e-014 -2.22639e-014
rhumerus -50.1527 -21.3327 -66.4129
rradius 24.0471
rwrist 15.9799
rhand -10.0872 8.09546
rfingers 7.12502
rthumb 15.8997 -21.2718
lclavicle -7.37491e-014 -2.22639e-014
lhumerus -20.9494 12.6214 76.1257
lradius 26.7199
lwrist -8.06121
lhand -19.1118 25.761
lfingers 7.12502
lthumb 7.19723 55.6186
rfemur -33.4639 -4.9344 13.8673
rtibia 16.7245
rfoot 5.51808 -25.3443
rtoes 11.0352
lfemur 5.68406 1.98227 -28.9167
ltibia 25.5578
lfoot -17.692 3.32682
ltoes -29.4082
97
root 12.0908 16.7857 -6.55459 -0.232412 1.67281 15.4915
lowerback 7.4931 -3.36031 -10.6767
upperback -0.173293 -5.45491 -1.05131
thorax -3.50366 -2.52289 5.39021
lowerneck -13.2153 -7.1049 -13.8663
upperneck 21.4246 -8.16077 5.94177
head 9.82236 -4.30585 3.30748
rclavicle -4.44284e-014 9.54166e-015
rhumerus -49.8853 -21.2398 -66.5959
rradius 23.9616
rwrist 16.0607
rhand -10.2015 7.0697
rfingers 7.12502
rthumb 15.7896 -22.3063
lclavicle -4.44284e-014 9.54166e-015
lhumerus -20.7747 14.1365 75.4651
lradius 26.0158
lwrist -8.48194
lhand -20.2637 21.5864
lfingers 7.12502
lthumb 6.08523 51.479
rfemur -33.2871 -7.00274 16.0462
rtibia 17.3611
rfoot 8.22082 -21.4885
rtoes 18.082
lfemur 5.85599 2.20776 -28.3944
ltibia 27.3577
lfoot -17.1763 2.53706
ltoes -31.0837
98
root 12.0161 16.7776 -6.33307 -0.580931 0.733426 15.3799
lowerback 7.16089 -3.37523 -10.5496
upperback -0.0837404 -5.41493 -1.04648
thorax -3.23927 -2.52419 5.29146
lowerneck -11.8592 -7.46686 -14.5409
upperneck 20.5718 -8.85094 6.60438
head 9.41205 -4.62593 3.58345
rclavicle -5.26779e-015 -2.8625e-014
rhumerus -49.7029 -21.479 -66.4521
rradius 23.5827
rwrist 16.5001
rhand -10.1991 6.72535
rfingers 7.12502
rthumb 15.7919 -22.6505
lclavicle -5.26779e-015 -2.8625e-014
lhumerus -21.239 15.7503 74.5835
lradius 25.8327
lwrist -8.94242
lhand -20.614 18.1565
lfingers 7.12502
lthumb 5.74705 48.0585
rfemur -32.9939 -8.43593 17.8715
rtibia 18.077
rfoot 9.17104 -16.3198
rtoes 21.8988
lfemur 5.69944 2.47931 -27.687
ltibia 29.3086
lfoot -15.447 0.51823
ltoes -29.0981
99
root 11.9413 16.7526 -6.11077 -1.10575 -0.225607 15.5074
lowerback 6.83337 -3.41607 -10.531
upperback 0.121784 -5.41813 -1.23868
thorax -2.85816 -2.55608 5.04408
lowerneck -11.0196 -7.76495 -14.5781
upperneck 19.9885 -9.39976 6.74374
head 9.12703 -4.88124 3.58409
rclavicle 3.06128e-014 -6.04305e-014
rhumerus -49.4432 -22.6635 -65.8117
rradius 22.723
rwrist 18.1596
rhand -10.2806 7.548
rfingers 7.12502
rthumb 15.7134 -21.834
lclavicle 3.06128e-014 -6.04305e-014
lhumerus -21.7701 16.5878 73.649
lradius 26.1709
lwrist -8.32467
lhand -20.2478 19.5692
lfingers 7.12502
lthumb 6.10054 49.4614
rfemur -32.4189 -8.99866 18.9104
rtibia 18.8262
rfoot 8.2298 -12.1214
rtoes 22.7552
lfemur 5.8485 2.95452 -27.1529
ltibia 31.3558
lfoot -13.6442 -1.49308
ltoes -29.9469
100
root 11.864 16.7464 -5.89327 -1.62029 -1.21576 15.5926
lowerback 6.17888 -3.49634 -10.3029
upperback 0.602423 -5.3993 -1.55182
thorax -2.03905 -2.6114 4.51661
lowerneck -11.1114 -8.05049 -14.2647
upperneck 19.7353 -9.84916 6.79583
head 9.0925 -5.05733 3.48627
rclavicle 7.40473e-014 1.43125e-014
rhumerus -48.7387 -24.4231 -65.319
rradius 21.7816
rwrist 20.0254
rhand -10.3748 8.94552
rfingers 7.12502
rthumb 15.6227 -20.4436
lclavicle 7.40473e-014 1.43125e-014
lhumerus -21.6359 17.0359 72.8481
lradius 26.4193
lwrist -6.89478
lhand -19.534 22.7882
lfingers 7.12502
lthumb 6.78964 52.6593
rfemur -31.8441 -8.53466 19.4468
rtibia 19.6976
rfoot 7.28123 -11.4573
rtoes 21.6328
lfemur 5.76557 3.25235 -26.6082
ltibia 33.5235
lfoot -11.498 -3.43929
ltoes -32.2385
101
root 11.7765 16.7766 -5.67794 -2.08205 -2.4284 15.6688
lowerback 6.07636 -3.50818 -10.3249
upperback 0.668683 -5.40069 -1.59814
thorax -1.91439 -2.62112 4.46924
lowerneck -11.8548 -8.39414 -14.1401
upperneck 20.3063 -10.2051 6.4695
head 9.44508 -5.23593 3.27556
rclavicle 1.5207e-014 -2.38542e-014
rhumerus -48.2697 -24.555 -65.3307
rradius 21.5001
rwrist 20.3533
rhand -10.4087 9.3068
rfingers 7.12502
rthumb 15.5901 -20.0849
lclavicle 1.5207e-014 -2.38542e-014
lhumerus -22.4597 17.669 72.184
lradius 26.8159
lwrist -5.78234
lhand -19.3807 22.9203
lfingers 7.12502
lthumb 6.93762 52.7866
rfemur -31.3544 -6.9061 19.5044
rtibia 20.7443
rfoot 7.74829 -14.0004
rtoes 25.4515
lfemur 5.16125 3.49582 -26.0094
ltibia 35.9978
lfoot -8.54497 -5.60159
ltoes -32.5199
102
root 11.6857 16.8016 -5.4713 -2.58248 -3.88673 15.5481
lowerback 7.41296 -3.421 -10.6789
upperback -0.252996 -5.53684 -1.09989
thorax -3.53437 -2.5607 5.34359
lowerneck -11.8816 -8.67783 -14.5063
upperneck 21.4236 -10.3808 5.57358
head 9.84315 -5.45465 2.9871
rclavicle -2.90226e-014 2.8625e-014
rhumerus -48.8476 -23.1313 -64.6701
rradius 21.6091
rwrist 20.1678
rhand -10.1515 9.51214
rfingers 7.12502
rthumb 15.8378 -19.8601
lclavicle -2.90226e-014 2.8625e-014
lhumerus -25.0692 18.697 71.5097
lradius 27.0713
lwrist -5.09915
lhand -19.1979 28.4127
lfingers 7.12502
lthumb 7.11411 58.2731
rfemur -30.8641 -4.78687 19.6507
rtibia 21.7704
rfoot 8.04555 -15.5059
rtoes 28.03
lfemur 4.2595 3.95527 -25.0772
ltibia 38.6761
lfoot -4.50817 -8.02268
ltoes -31.8658
103
root 11.6057 16.785 -5.27676 -3.0429 -5.36483 15.0339
lowerback 8.07004 -3.42881 -10.0179
upperback -0.69855 -5.60179 -1.05961
thorax -4.42233 -2.54064 5.10512
lowerneck -12.2121 -9.15371 -14.7078
upperneck 22.1489 -11.0242 5.64508
head 10.2558 -5.76604 2.92732
rclavicle 4.85532e-014 -1.59028e-015
rhumerus -49.0138 -23.1486 -64.5028
rradius 21.505
rwrist 20.6094
rhand -10.1059 9.69128
rfingers 7.12502
rthumb 15.8817 -19.6774
lclavicle 4.85532e-014 -1.59028e-015
lhumerus -26.8152 18.9772 70.3421
lradius 27.1583
lwrist -4.14267
lhand -20.7513 31.9087
lfingers 7.12502
lthumb 5.61443 61.8144
rfemur -30.3662 -3.21212 20.5459
rtibia 22.6427
rfoot 7.59646 -13.4023
rtoes 27.1223
lfemur 3.04828 4.45251 -23.6696
ltibia 41.5063
lfoot 0.5634 -10.3898
ltoes -31.3675
104
root 11.5318 16.7824 -5.08519 -3.48531 -7.11675 14.1302
lowerback 8.41588 -3.38884 -8.86827
upperback -0.847004 -5.48063 -0.968351
thorax -4.88525 -2.48022 4.59449
lowerneck -13.6203 -9.81702 -14.6553
upperneck 23.2071 -11.8309 5.67056
head 11.0022 -6.10767 2.73081
rclavicle -1.27719e-014 5.08889e-014
rhumerus -48.6866 -23.7376 -64.3272
rradius 21.1752
rwrist 21.3257
rhand -10.1861 9.45288
rfingers 7.12502
rthumb 15.8044 -19.922
lclavicle -1.27719e-014 5.08889e-014
lhumerus -28.2594 19.2815 69.2868
lradius 27.4532
lwrist -3.35709
lhand -23.0618 34.0454
lfingers 7.12502
lthumb 3.3834 63.9983
rfemur -29.5949 -2.21069 22.2096
rtibia 23.3209
rfoot 7.47095 -11.5497
rtoes 25.0581
lfemur 1.56465 4.83585 -21.9638
ltibia 44.4817
lfoot 5.84589 -12.7179
ltoes -31.2728
105
root 11.4575 16.8118 -4.89299 -3.86903 -9.18045 13.2038
lowerback 8.47532 -3.31411 -7.71356
upperback -0.689467 -5.25131 -0.805712
thorax -4.86479 -2.40184 4.10378
lowerneck -15.5629 -10.3702 -13.9875
upperneck 24.5055 -12.3976 5.01946
head 11.8384 -6.34274 2.19486
rclavicle -9.40251e-014 -4.77083e-015
rhumerus -47.6501 -24.0245 -64.7264
rradius 21.0211
rwrist 21.4517
rhand -10.283 9.65042
rfingers 7.12502
rthumb 15.7111 -19.7318
lclavicle -9.40251e-014 -4.77083e-015
lhumerus -29.2837 20.0432 68.3869
lradius 27.6895
lwrist -2.64842
lhand -23.0835 34.4435
lfingers 7.12502
lthumb 3.36246 64.3967
rfemur -28.8071 -1.52465 24.0041
rtibia 24.0815
rfoot 6.91373 -10.8753
rtoes 24.4608
lfemur 0.00225738 5.23305 -20.3527
ltibia 47.445
lfoot 9.91525 -15.5993
ltoes -27.542
106
root 11.3895 16.8094 -4.70477 -4.21122 -11.2504 12.516
lowerback 8.59593 -3.2975 -6.9005
upperback -0.513218 -5.13917 -0.651502
thorax -4.81332 -2.37251 3.80588
lowerneck -16.2032 -10.3736 -13.1774
upperneck 25.1094 -12.4024 4.40646
head 12.0895 -6.33591 1.81037
rclavicle 5.53118e-014 1.59028e-014
rhumerus -46.3487 -23.8826 -65.561
rradius 21.1548
rwrist 21.4161
rhand -10.4 10.0866
rfingers 7.12502
rthumb 15.5984 -19.3044
lclavicle 5.53118e-014 1.59028e-014
lhumerus -30.3391 21.2721 67.3242
lradius 27.7088
lwrist -2.07581
lhand -22.3209 34.3249
lfingers 7.12502
lthumb 4.09893 64.2652
rfemur -28.0489 -1.16814 25.5519
rtibia 24.6941
rfoot 6.06405 -9.88007
rtoes 24.651
lfemur -1.72115 5.62014 -19.0584
ltibia 50.4666
lfoot 12.3537 -18.066
ltoes -17.7311
107
root 11.3389 16.7719 -4.51896 -4.51669 -13.2107 12.2379
lowerback 8.61882 -3.3659 -6.47669
upperback -0.467371 -5.18061 -0.5384
thorax -4.79832 -2.40432 3.69365
lowerneck -15.3086 -10.3325 -13.0841
upperneck 24.6508 -12.4671 4.35145
head 11.7306 -6.38509 1.81309
rclavicle -6.07287e-014 1.59028e-015
rhumerus -45.1672 -23.9916 -65.9111
rradius 21.1129
rwrist 22.0108
rhand -10.3772 10.6236
rfingers 7.12502
rthumb 15.6204 -18.7657
lclavicle -6.07287e-014 1.59028e-015
lhumerus -31.8698 22.7452 66.1204
lradius 27.382
lwrist -2.01332
lhand -24.1279 32.3573
lfingers 7.12502
lthumb 2.35381 62.3241
rfemur -27.4958 -1.32398 26.7008
rtibia 25.4283
rfoot 4.96209 -7.65461
rtoes 24.5908
lfemur -2.12355 5.41244 -18.2968
ltibia 53.57
lfoot -8.19315 -32.591
ltoes -48.5094
